<?xml version="1.0" encoding="UTF-8"?>

<svg version="1.1" xmlns="http://www.w3.org/2000/svg"  xmlns:xlink="http://www.w3.org/1999/xlink">
        <!-- preserveAspectRatio="x200Y200 meet" -->
        <symbol
            id="save"
          xmlns:rdf="http://www.w3.org/1999/02/22-rdf-syntax-ns#"
          viewBox="0 0 24 24"
          xmlns:cc="http://creativecommons.org/ns#"
          xmlns:dc="http://purl.org/dc/elements/1.1/"
        >
          <g transform="translate(0 -1028.4)">
            <path
              d="m5 1031.4c-1.1046 0-2 0.9-2 2v14c0 1.1 0.8954 2 2 2h13 1c1.105 0 2-0.9 2-2v-13l-3-3h-13z"
              fill="#3498db"
            />
            <path
              d="m7 1031.4v1 5c0 0.5 0.4477 1 1 1h8c0.552 0 1-0.5 1-1v-5-1h-10z"
              fill="#2980b9"
            />
            <path
              d="m7 3v5c0 0.5523 0.4477 1 1 1h8c0.552 0 1-0.4477 1-1v-5h-10z"
              transform="translate(0 1028.4)"
              fill="#ecf0f1"
            />
            <path
              d="m6 1040.4c-0.5523 0-1 0.4-1 1v3 2 3h4 6 4v-3-2-3c0-0.6-0.448-1-1-1h-4-4-4z"
              fill="#ecf0f1"
            />
            <g fill="#bdc3c7">
              <rect height="1" width="14" y="1048.4" x="5" />
              <rect height="1" width="10" y="1042.4" x="7" />
              <rect height="1" width="10" y="1044.4" x="7" />
            </g>
            <rect height="4" width="3" y="1032.4" x="13" fill="#3498db" />
            <rect height=".99998" width="3" y="1032.4" x="13" fill="#2980b9" />
          </g>
        </symbol>

        <symbol
            id="delete"
          viewBox="0 0 128 128"
        >
          <path
            style="fill: #2980b9"
            d="M17.66229,21.88486,63.3847,30.82574l45.72241,8.94088a1.559,1.559,0,0,0,1.82788-1.22994A10.15176,10.15176,0,0,0,102.9192,26.6239l-15.172-2.96684.79656-4.07352A11.10952,11.10952,0,0,0,79.7827,6.56318L57.33412,2.17343A11.1096,11.1096,0,0,0,44.31375,10.9345L43.51718,15.008l-15.172-2.96685A10.15176,10.15176,0,0,0,16.43235,20.057a1.559,1.559,0,0,0,1.22994,1.82788ZM60.0674,9.82374,74.369,12.62036a8.2641,8.2641,0,0,1,6.5245,9.69647h0l-15.2613-2.9843L50.37093,16.34825h0A8.2641,8.2641,0,0,1,60.0674,9.82374Z"
          />
          <path
            style="fill: #3498db"
            d="M110.58839,47.36161H17.41161a1.559,1.559,0,0,0-1.55785,1.55785v5.90918c0,.85949,16.14275,61.05238,16.14275,61.05238a11.08149,11.08149,0,0,0,11.03938,10.153H84.96412A11.08149,11.08149,0,0,0,96.0035,115.881s16.14275-60.19289,16.14275-61.05238V48.91946A1.559,1.559,0,0,0,110.58839,47.36161Zm-61.934,64.2194a2.60793,2.60793,0,0,1-3.19666-1.84821c-4.44239-16.61345-8.95983-33.53068-11.91535-44.72956a2.61069,2.61069,0,1,1,5.04851-1.33243c2.95407,11.19159,7.47077,28.10409,11.911,44.71353A2.61043,2.61043,0,0,1,48.65435,111.581Zm17.95316-2.52243a2.61095,2.61095,0,0,1-5.22189,0V64.337a2.61095,2.61095,0,0,1,5.22189,0ZM94.45735,65.00325C91.3685,76.70879,86.46715,95.05644,82.542,109.73317a2.61073,2.61073,0,1,1-5.04414-1.34918c3.9237-14.67272,8.8236-33.01491,11.911-44.71316a2.61069,2.61069,0,1,1,5.04851,1.33243Z"
          />
        </symbol>
    <symbol id="menu" viewBox="0 0 24 24">
        <path d="M0 0h24v24H0V0z" fill="none"/>
        <path d="M3 18h18v-2H3v2zm0-5h18v-2H3v2zm0-7v2h18V6H3z"/>
    </symbol>

    <symbol id="menu-open" viewBox="0 0 24 24">
        <path d="M0,0h24v24H0V0z" fill="none"/>
        <path d="M3,18h13v-2H3V18z M3,13h10v-2H3V13z M3,6v2h13V6H3z M21,15.59L17.42,12L21,8.41L19.59,7l-5,5l5,5L21,15.59z"/>
    </symbol>

    <symbol id="expand_more" viewBox="0 0 24 24">
        <path d="M24 24H0V0h24v24z" fill="none" opacity=".87"/>
        <path d="M16.59 8.59L12 13.17 7.41 8.59 6 10l6 6 6-6-1.41-1.41z"/>
    </symbol>

    <symbol id="download" viewBox="0 0 24 24">
        <path d="M0 0h24v24H0z" fill="none"/>
        <path d="M19 9h-4V3H9v6H5l7 7 7-7zM5 18v2h14v-2H5z"/>
    </symbol>

    <symbol id="palette" enable-background="new 0 0 24 24" viewBox="0 0 24 24">
        <g><rect fill="none" height="24" width="24"/></g>
        <g><g><g><g>
            <path d="M12,22C6.49,22,2,17.51,2,12S6.49,2,12,2s10,4.04,10,9c0,3.31-2.69,6-6,6h-1.77c-0.28,0-0.5,0.22-0.5,0.5 c0,0.12,0.05,0.23,0.13,0.33c0.41,0.47,0.64,1.06,0.64,1.67C14.5,20.88,13.38,22,12,22z M12,4c-4.41,0-8,3.59-8,8s3.59,8,8,8 c0.28,0,0.5-0.22,0.5-0.5c0-0.16-0.08-0.28-0.14-0.35c-0.41-0.46-0.63-1.05-0.63-1.65c0-1.38,1.12-2.5,2.5-2.5H16 c2.21,0,4-1.79,4-4C20,7.14,16.41,4,12,4z"/>
            <circle cx="6.5" cy="11.5" r="1.5"/><circle cx="9.5" cy="7.5" r="1.5"/>
            <circle cx="14.5" cy="7.5" r="1.5"/><circle cx="17.5" cy="11.5" r="1.5"/>
        </g></g></g></g>
    </symbol>
    <symbol id="palette-fill" enable-background="new 0 0 24 24" viewBox="0 0 24 24">
        <g><rect fill="none" height="24" width="24"/></g>
        <g><path d="M12,2C6.49,2,2,6.49,2,12s4.49,10,10,10c1.38,0,2.5-1.12,2.5-2.5c0-0.61-0.23-1.2-0.64-1.67c-0.08-0.1-0.13-0.21-0.13-0.33 c0-0.28,0.22-0.5,0.5-0.5H16c3.31,0,6-2.69,6-6C22,6.04,17.51,2,12,2z M17.5,13c-0.83,0-1.5-0.67-1.5-1.5c0-0.83,0.67-1.5,1.5-1.5 s1.5,0.67,1.5,1.5C19,12.33,18.33,13,17.5,13z M14.5,9C13.67,9,13,8.33,13,7.5C13,6.67,13.67,6,14.5,6S16,6.67,16,7.5 C16,8.33,15.33,9,14.5,9z M5,11.5C5,10.67,5.67,10,6.5,10S8,10.67,8,11.5C8,12.33,7.33,13,6.5,13S5,12.33,5,11.5z M11,7.5 C11,8.33,10.33,9,9.5,9S8,8.33,8,7.5C8,6.67,8.67,6,9.5,6S11,6.67,11,7.5z"/></g>
    </symbol>
    <symbol id="settings" viewBox="0 0 24 24">
        <path d="M0 0h24v24H0V0z" fill="none"/>
        <path d="M19.43 12.98c.04-.32.07-.64.07-.98 0-.34-.03-.66-.07-.98l2.11-1.65c.19-.15.24-.42.12-.64l-2-3.46c-.09-.16-.26-.25-.44-.25-.06 0-.12.01-.17.03l-2.49 1c-.52-.4-1.08-.73-1.69-.98l-.38-2.65C14.46 2.18 14.25 2 14 2h-4c-.25 0-.46.18-.49.42l-.38 2.65c-.61.25-1.17.59-1.69.98l-2.49-1c-.06-.02-.12-.03-.18-.03-.17 0-.34.09-.43.25l-2 3.46c-.13.22-.07.49.12.64l2.11 1.65c-.04.32-.07.65-.07.98 0 .33.03.66.07.98l-2.11 1.65c-.19.15-.24.42-.12.64l2 3.46c.09.16.26.25.44.25.06 0 .12-.01.17-.03l2.49-1c.52.4 1.08.73 1.69.98l.38 2.65c.03.24.24.42.49.42h4c.25 0 .46-.18.49-.42l.38-2.65c.61-.25 1.17-.59 1.69-.98l2.49 1c.06.02.12.03.18.03.17 0 .34-.09.43-.25l2-3.46c.12-.22.07-.49-.12-.64l-2.11-1.65zm-1.98-1.71c.04.31.05.52.05.73 0 .21-.02.43-.05.73l-.14 1.13.89.7 1.08.84-.7 1.21-1.27-.51-1.04-.42-.9.68c-.43.32-.84.56-1.25.73l-1.06.43-.16 1.13-.2 1.35h-1.4l-.19-1.35-.16-1.13-1.06-.43c-.43-.18-.83-.41-1.23-.71l-.91-.7-1.06.43-1.27.51-.7-1.21 1.08-.84.89-.7-.14-1.13c-.03-.31-.05-.54-.05-.74s.02-.43.05-.73l.14-1.13-.89-.7-1.08-.84.7-1.21 1.27.51 1.04.42.9-.68c.43-.32.84-.56 1.25-.73l1.06-.43.16-1.13.2-1.35h1.39l.19 1.35.16 1.13 1.06.43c.43.18.83.41 1.23.71l.91.7 1.06-.43 1.27-.51.7 1.21-1.07.85-.89.7.14 1.13zM12 8c-2.21 0-4 1.79-4 4s1.79 4 4 4 4-1.79 4-4-1.79-4-4-4zm0 6c-1.1 0-2-.9-2-2s.9-2 2-2 2 .9 2 2-.9 2-2 2z"/>
    </symbol>
    <symbol id='toc' viewBox="0 0 483.6 483.6">
        <g>
            <path d="M466.2,353.25H451v-30.2c0-9.9-5.6-17.1-13.4-17.1h-53.1v-36.4h15.2c9.5,0,17.2-7.7,17.2-17.2v-30
        c0-9.5-7.7-17.2-17.2-17.2h-15.2v-30.3c0-9.4-7.7-17.1-17.1-17.1H251.2v-27.3h15.4c9.5,0,17.2-7.7,17.2-17.2v-30
        c0-9.5-7.7-17.2-17.2-17.2h-49.9c-9.5,0-17.2,7.7-17.2,17.2v30c0,9.5,7.7,17.2,17.2,17.2h15.1v27.3H116.1
        c-9.4,0-17.1,7.7-17.1,17.1v30.2H83.7c-9.5,0-17.2,7.7-17.2,17.2v30c0,9.5,7.7,17.2,17.2,17.2h15.2v36.4h-53
        c-7.8,0-13.4,7.2-13.4,17.1v30.2H17.2c-9.5,0-17.2,7.7-17.2,17.2v30c0,9.5,7.7,17.2,17.2,17.2h49.9c9.5,0,17.2-7.7,17.2-17.2v-30
        c0-9.5-7.7-17.2-17.2-17.2H51.9v-27.9h113.6v27.9h-15.2c-9.5,0-17.2,7.7-17.2,17.2v30c0,9.5,7.7,17.2,17.2,17.2h49.9
        c9.5,0,17.2-7.7,17.2-17.2v-30c0-9.5-7.7-17.2-17.2-17.2H185v-30.2c0-9.9-5.6-17.1-13.4-17.1h-53.1v-36.4h15.2
        c9.5,0,17.2-7.7,17.2-17.2v-30c0-9.5-7.7-17.2-17.2-17.2h-15.2v-27.9h113.4v27.9h-15.1c-9.5,0-17.2,7.7-17.2,17.2v30
        c0,9.5,7.7,17.2,17.2,17.2h49.9c9.5,0,17.2-7.7,17.2-17.2v-30c0-9.5-7.7-17.2-17.2-17.2h-15.4v-27.9h113.8v27.9h-15.2
        c-9.5,0-17.2,7.7-17.2,17.2v30c0,9.5,7.7,17.2,17.2,17.2h15.2v36.4H312c-7.8,0-13.4,7.2-13.4,17.1v30.2h-15.2
        c-9.5,0-17.2,7.7-17.2,17.2v30c0,9.5,7.7,17.2,17.2,17.2h49.9c9.5,0,17.2-7.7,17.2-17.2v-30c0-9.5-7.7-17.2-17.2-17.2h-15.2v-27.9
        h113.6v27.9h-15.2c-9.5,0-17.2,7.7-17.2,17.2v30c0,9.5,7.7,17.2,17.2,17.2h49.9c9.5,0,17.2-7.7,17.2-17.2v-30
        C483.3,360.95,475.7,353.25,466.2,353.25z"/>
        </g>
        <g>
        </g>
        <g>
        </g>
        <g>
        </g>
        <g>
        </g>
        <g>
        </g>
        <g>
        </g>
        <g>
        </g>
        <g>
        </g>
        <g>
        </g>
        <g>
        </g>
        <g>
        </g>
        <g>
        </g>
        <g>
        </g>
        <g>
        </g>
        <g>
        </g>
    </symbol>
</svg>